<svg width="159" height="38" viewBox="0 0 159 38" fill="none" xmlns="http://www.w3.org/2000/svg">
<path d="M2.02273 31V7.72727H11.3409C13.053 7.72727 14.4811 7.98106 15.625 8.48864C16.7689 8.99621 17.6288 9.70076 18.2045 10.6023C18.7803 11.4962 19.0682 12.5265 19.0682 13.6932C19.0682 14.6023 18.8864 15.4015 18.5227 16.0909C18.1591 16.7727 17.6591 17.3333 17.0227 17.7727C16.3939 18.2045 15.6742 18.5114 14.8636 18.6932V18.9205C15.75 18.9583 16.5795 19.2083 17.3523 19.6705C18.1326 20.1326 18.7652 20.7803 19.25 21.6136C19.7348 22.4394 19.9773 23.4242 19.9773 24.5682C19.9773 25.803 19.6705 26.9053 19.0568 27.875C18.4508 28.8371 17.553 29.5985 16.3636 30.1591C15.1742 30.7197 13.7083 31 11.9659 31H2.02273ZM6.94318 26.9773H10.9545C12.3258 26.9773 13.3258 26.7159 13.9545 26.1932C14.5833 25.6629 14.8977 24.9583 14.8977 24.0795C14.8977 23.4356 14.7424 22.8674 14.4318 22.375C14.1212 21.8826 13.678 21.4962 13.1023 21.2159C12.5341 20.9356 11.8561 20.7955 11.0682 20.7955H6.94318V26.9773ZM6.94318 17.4659H10.5909C11.2652 17.4659 11.8636 17.3485 12.3864 17.1136C12.9167 16.8712 13.3333 16.5303 13.6364 16.0909C13.947 15.6515 14.1023 15.125 14.1023 14.5114C14.1023 13.6705 13.803 12.9924 13.2045 12.4773C12.6136 11.9621 11.7727 11.7045 10.6818 11.7045H6.94318V17.4659ZM30.9744 31.3409C29.2093 31.3409 27.6828 30.9659 26.3949 30.2159C25.1146 29.4583 24.1259 28.4053 23.429 27.0568C22.732 25.7008 22.3835 24.1288 22.3835 22.3409C22.3835 20.5379 22.732 18.9621 23.429 17.6136C24.1259 16.2576 25.1146 15.2045 26.3949 14.4545C27.6828 13.697 29.2093 13.3182 30.9744 13.3182C32.7396 13.3182 34.2623 13.697 35.5426 14.4545C36.8305 15.2045 37.8229 16.2576 38.5199 17.6136C39.2169 18.9621 39.5653 20.5379 39.5653 22.3409C39.5653 24.1288 39.2169 25.7008 38.5199 27.0568C37.8229 28.4053 36.8305 29.4583 35.5426 30.2159C34.2623 30.9659 32.7396 31.3409 30.9744 31.3409ZM30.9972 27.5909C31.8002 27.5909 32.4706 27.3636 33.0085 26.9091C33.5464 26.447 33.9517 25.8182 34.2244 25.0227C34.5047 24.2273 34.6449 23.322 34.6449 22.3068C34.6449 21.2917 34.5047 20.3864 34.2244 19.5909C33.9517 18.7955 33.5464 18.1667 33.0085 17.7045C32.4706 17.2424 31.8002 17.0114 30.9972 17.0114C30.1866 17.0114 29.5047 17.2424 28.9517 17.7045C28.4063 18.1667 27.9934 18.7955 27.7131 19.5909C27.4403 20.3864 27.304 21.2917 27.304 22.3068C27.304 23.322 27.4403 24.2273 27.7131 25.0227C27.9934 25.8182 28.4063 26.447 28.9517 26.9091C29.5047 27.3636 30.1866 27.5909 30.9972 27.5909ZM50.5994 31.3409C48.8343 31.3409 47.3078 30.9659 46.0199 30.2159C44.7396 29.4583 43.7509 28.4053 43.054 27.0568C42.357 25.7008 42.0085 24.1288 42.0085 22.3409C42.0085 20.5379 42.357 18.9621 43.054 17.6136C43.7509 16.2576 44.7396 15.2045 46.0199 14.4545C47.3078 13.697 48.8343 13.3182 50.5994 13.3182C52.3646 13.3182 53.8873 13.697 55.1676 14.4545C56.4555 15.2045 57.4479 16.2576 58.1449 17.6136C58.8419 18.9621 59.1903 20.5379 59.1903 22.3409C59.1903 24.1288 58.8419 25.7008 58.1449 27.0568C57.4479 28.4053 56.4555 29.4583 55.1676 30.2159C53.8873 30.9659 52.3646 31.3409 50.5994 31.3409ZM50.6222 27.5909C51.4252 27.5909 52.0956 27.3636 52.6335 26.9091C53.1714 26.447 53.5767 25.8182 53.8494 25.0227C54.1297 24.2273 54.2699 23.322 54.2699 22.3068C54.2699 21.2917 54.1297 20.3864 53.8494 19.5909C53.5767 18.7955 53.1714 18.1667 52.6335 17.7045C52.0956 17.2424 51.4252 17.0114 50.6222 17.0114C49.8116 17.0114 49.1297 17.2424 48.5767 17.7045C48.0313 18.1667 47.6184 18.7955 47.3381 19.5909C47.0653 20.3864 46.929 21.2917 46.929 22.3068C46.929 23.322 47.0653 24.2273 47.3381 25.0227C47.6184 25.8182 48.0313 26.447 48.5767 26.9091C49.1297 27.3636 49.8116 27.5909 50.6222 27.5909ZM66.7244 25.9773L66.7358 20.1705H67.4403L73.0312 13.5455H78.5881L71.0767 22.3182H69.929L66.7244 25.9773ZM62.3381 31V7.72727H67.179V31H62.3381ZM73.2472 31L68.1108 23.3977L71.3381 19.9773L78.9176 31H73.2472Z" fill="#333339"/>
<path d="M94.6477 14.4205C94.5568 13.5038 94.1667 12.7917 93.4773 12.2841C92.7879 11.7765 91.8523 11.5227 90.6705 11.5227C89.8674 11.5227 89.1894 11.6364 88.6364 11.8636C88.0833 12.0833 87.6591 12.3902 87.3636 12.7841C87.0758 13.178 86.9318 13.625 86.9318 14.125C86.9167 14.5417 87.0038 14.9053 87.1932 15.2159C87.3902 15.5265 87.6591 15.7955 88 16.0227C88.3409 16.2424 88.7348 16.4356 89.1818 16.6023C89.6288 16.7614 90.1061 16.8977 90.6136 17.0114L92.7045 17.5114C93.7197 17.7386 94.6515 18.0417 95.5 18.4205C96.3485 18.7992 97.0833 19.2652 97.7045 19.8182C98.3258 20.3712 98.8068 21.0227 99.1477 21.7727C99.4962 22.5227 99.6742 23.3826 99.6818 24.3523C99.6742 25.7765 99.3106 27.0114 98.5909 28.0568C97.8788 29.0947 96.8485 29.9015 95.5 30.4773C94.1591 31.0455 92.5417 31.3295 90.6477 31.3295C88.7689 31.3295 87.1326 31.0417 85.7386 30.4659C84.3523 29.8902 83.2689 29.0379 82.4886 27.9091C81.7159 26.7727 81.3106 25.3674 81.2727 23.6932H86.0341C86.0871 24.4735 86.3106 25.125 86.7045 25.6477C87.1061 26.1629 87.6402 26.553 88.3068 26.8182C88.9811 27.0758 89.7424 27.2045 90.5909 27.2045C91.4242 27.2045 92.1477 27.0833 92.7614 26.8409C93.3826 26.5985 93.8636 26.2614 94.2045 25.8295C94.5455 25.3977 94.7159 24.9015 94.7159 24.3409C94.7159 23.8182 94.5606 23.3788 94.25 23.0227C93.947 22.6667 93.5 22.3636 92.9091 22.1136C92.3258 21.8636 91.6098 21.6364 90.7614 21.4318L88.2273 20.7955C86.2652 20.3182 84.7159 19.572 83.5795 18.5568C82.4432 17.5417 81.8788 16.1742 81.8864 14.4545C81.8788 13.0455 82.2538 11.8144 83.0114 10.7614C83.7765 9.70833 84.8258 8.88636 86.1591 8.29545C87.4924 7.70454 89.0076 7.40909 90.7045 7.40909C92.4318 7.40909 93.9394 7.70454 95.2273 8.29545C96.5227 8.88636 97.5303 9.70833 98.25 10.7614C98.9697 11.8144 99.3409 13.0341 99.3636 14.4205H94.6477ZM110.787 31.3409C108.999 31.3409 107.461 30.9621 106.173 30.2045C104.893 29.4394 103.908 28.3788 103.219 27.0227C102.537 25.6667 102.196 24.1061 102.196 22.3409C102.196 20.553 102.541 18.9848 103.23 17.6364C103.927 16.2803 104.916 15.2235 106.196 14.4659C107.476 13.7008 108.999 13.3182 110.764 13.3182C112.287 13.3182 113.62 13.5947 114.764 14.1477C115.908 14.7008 116.813 15.4773 117.48 16.4773C118.147 17.4773 118.514 18.6515 118.582 20H114.014C113.885 19.1288 113.545 18.428 112.991 17.8977C112.446 17.3598 111.73 17.0909 110.844 17.0909C110.094 17.0909 109.438 17.2955 108.878 17.7045C108.325 18.1061 107.893 18.6932 107.582 19.4659C107.272 20.2386 107.116 21.1742 107.116 22.2727C107.116 23.3864 107.268 24.3333 107.571 25.1136C107.882 25.8939 108.317 26.4886 108.878 26.8977C109.438 27.3068 110.094 27.5114 110.844 27.5114C111.397 27.5114 111.893 27.3977 112.332 27.1705C112.779 26.9432 113.147 26.6136 113.435 26.1818C113.73 25.7424 113.923 25.2159 114.014 24.6023H118.582C118.507 25.9356 118.143 27.1098 117.491 28.125C116.848 29.1326 115.957 29.9205 114.821 30.4886C113.685 31.0568 112.34 31.3409 110.787 31.3409ZM126.659 31.3295C125.545 31.3295 124.553 31.1364 123.682 30.75C122.811 30.3561 122.121 29.7765 121.614 29.0114C121.114 28.2386 120.864 27.2765 120.864 26.125C120.864 25.1553 121.042 24.3409 121.398 23.6818C121.754 23.0227 122.239 22.4924 122.852 22.0909C123.466 21.6894 124.163 21.3864 124.943 21.1818C125.731 20.9773 126.557 20.8333 127.42 20.75C128.436 20.6439 129.254 20.5455 129.875 20.4545C130.496 20.3561 130.947 20.2121 131.227 20.0227C131.508 19.8333 131.648 19.553 131.648 19.1818V19.1136C131.648 18.3939 131.42 17.8371 130.966 17.4432C130.519 17.0492 129.883 16.8523 129.057 16.8523C128.186 16.8523 127.492 17.0455 126.977 17.4318C126.462 17.8106 126.121 18.2879 125.955 18.8636L121.477 18.5C121.705 17.4394 122.152 16.5227 122.818 15.75C123.485 14.9697 124.345 14.3712 125.398 13.9545C126.458 13.5303 127.686 13.3182 129.08 13.3182C130.049 13.3182 130.977 13.4318 131.864 13.6591C132.758 13.8864 133.549 14.2386 134.239 14.7159C134.936 15.1932 135.485 15.8068 135.886 16.5568C136.288 17.2992 136.489 18.1894 136.489 19.2273V31H131.898V28.5795H131.761C131.481 29.125 131.106 29.6061 130.636 30.0227C130.167 30.4318 129.602 30.7538 128.943 30.9886C128.284 31.2159 127.523 31.3295 126.659 31.3295ZM128.045 27.9886C128.758 27.9886 129.386 27.8485 129.932 27.5682C130.477 27.2803 130.905 26.8939 131.216 26.4091C131.527 25.9242 131.682 25.375 131.682 24.7614V22.9091C131.53 23.0076 131.322 23.0985 131.057 23.1818C130.799 23.2576 130.508 23.3295 130.182 23.3977C129.856 23.4583 129.53 23.5152 129.205 23.5682C128.879 23.6136 128.583 23.6553 128.318 23.6932C127.75 23.7765 127.254 23.9091 126.83 24.0909C126.405 24.2727 126.076 24.5189 125.841 24.8295C125.606 25.1326 125.489 25.5114 125.489 25.9659C125.489 26.625 125.727 27.1288 126.205 27.4773C126.689 27.8182 127.303 27.9886 128.045 27.9886ZM145.085 20.9091V31H140.244V13.5455H144.858V16.625H145.062C145.449 15.6098 146.097 14.8068 147.006 14.2159C147.915 13.6174 149.017 13.3182 150.312 13.3182C151.525 13.3182 152.581 13.5833 153.483 14.1136C154.384 14.6439 155.085 15.4015 155.585 16.3864C156.085 17.3636 156.335 18.5303 156.335 19.8864V31H151.494V20.75C151.502 19.6818 151.229 18.8485 150.676 18.25C150.123 17.6439 149.362 17.3409 148.392 17.3409C147.741 17.3409 147.165 17.4811 146.665 17.7614C146.172 18.0417 145.786 18.4508 145.506 18.9886C145.233 19.5189 145.093 20.1591 145.085 20.9091Z" fill="url(#paint0_linear_1_2342)"/>
<defs>
<linearGradient id="paint0_linear_1_2342" x1="80" y1="18.5581" x2="159" y2="18.5581" gradientUnits="userSpaceOnUse">
<stop stop-color="#550DB2"/>
<stop offset="1" stop-color="#E605DD"/>
</linearGradient>
</defs>
</svg>
